HIERARCHY
ROOT Hips
{
 OFFSET 0.000000 0.000000 0.000000
 CHANNELS 6 Xposition Yposition Zposition Yrotation Xrotation Zrotation
 JOINT Chest
 {
  OFFSET 0.000000 10.385163 0.011643
  CHANNELS 3 Yrotation Xrotation Zrotation
  JOINT Chest2
  {
   OFFSET 0.000000 11.579334 -0.021150
   CHANNELS 3 Yrotation Xrotation Zrotation
   JOINT Chest3
   {
    OFFSET 0.000000 10.463212 0.000000
    CHANNELS 3 Yrotation Xrotation Zrotation
    JOINT Chest4
    {
     OFFSET 0.000000 10.463212 0.000000
     CHANNELS 3 Yrotation Xrotation Zrotation
     JOINT Neck
     {
      OFFSET 0.000000 14.544862 0.000000
      CHANNELS 3 Yrotation Xrotation Zrotation
      JOINT Head
      {
       OFFSET 0.000000 9.730630 -0.050295
       CHANNELS 3 Yrotation Xrotation Zrotation
       End Site
       {
        OFFSET 0.000000 18.757589 -0.026270
       }
      }
     }
     JOINT RightCollar
     {
      OFFSET -2.985174 8.102313 0.000000
      CHANNELS 3 Yrotation Xrotation Zrotation
      JOINT RightShoulder
      {
       OFFSET -13.558590 0.000000 0.000000
       CHANNELS 3 Yrotation Xrotation Zrotation
       JOINT RightElbow
       {
        OFFSET -28.208579 0.000000 0.000000
        CHANNELS 3 Yrotation Xrotation Zrotation
        JOINT RightWrist
        {
         OFFSET -23.322907 0.000000 0.010349
         CHANNELS 3 Yrotation Xrotation Zrotation
         End Site
         {
          OFFSET -17.603338 0.000000 0.000000
         }
        }
       }
      }
     }
     JOINT LeftCollar
     {
      OFFSET 2.985174 8.102313 0.000000
      CHANNELS 3 Yrotation Xrotation Zrotation
      JOINT LeftShoulder
      {
       OFFSET 13.558590 0.000000 0.000000
       CHANNELS 3 Yrotation Xrotation Zrotation
       JOINT LeftElbow
       {
        OFFSET 28.208579 0.000000 0.000000
        CHANNELS 3 Yrotation Xrotation Zrotation
        JOINT LeftWrist
        {
         OFFSET 23.322907 0.000000 0.010349
         CHANNELS 3 Yrotation Xrotation Zrotation
         End Site
         {
          OFFSET 17.603338 0.000000 0.000000
         }
        }
       }
      }
     }
    }
   }
  }
 }
 JOINT RightHip
 {
  OFFSET -8.341224 -0.057053 -0.005822
  CHANNELS 3 Yrotation Xrotation Zrotation
  JOINT RightKnee
  {
   OFFSET 0.000000 -44.280013 0.005508
   CHANNELS 3 Yrotation Xrotation Zrotation
   JOINT RightAnkle
   {
    OFFSET 0.000000 -43.261728 0.009315
    CHANNELS 3 Yrotation Xrotation Zrotation
    JOINT RightToe
    {
     OFFSET 0.000000 -8.082955 18.257715
     CHANNELS 3 Yrotation Xrotation Zrotation
     End Site
     {
      OFFSET 0.000000 -1.634678 7.189621
     }
    }
   }
  }
 }
 JOINT LeftHip
 {
  OFFSET 8.341224 -0.057053 -0.005822
  CHANNELS 3 Yrotation Xrotation Zrotation
  JOINT LeftKnee
  {
   OFFSET 0.000000 -44.280013 0.005508
   CHANNELS 3 Yrotation Xrotation Zrotation
   JOINT LeftAnkle
   {
    OFFSET 0.000000 -43.261728 0.009315
    CHANNELS 3 Yrotation Xrotation Zrotation
    JOINT LeftToe
    {
     OFFSET 0.000000 -8.082955 18.257715
     CHANNELS 3 Yrotation Xrotation Zrotation
     End Site
     {
      OFFSET 0.000000 -1.634678 7.189621
     }
    }
   }
  }
 }
}
MOTION
Frames: 17
Frame Time: 0.016667
0.000000 95.489079 0.000000 0.000000 -5.826342 0.000000 0.000000 11.116423 0.000000 0.000000 -5.290081 0.000000 0.000000 0.000000 0.000000 0.000000 0.000000 0.000000 0.000000 12.665069 0.000000 0.000000 0.575450 0.000000 0.000000 0.000000 0.000000 0.000000 0.000000 0.000000 2.337306 0.000000 0.000000 -2.337306 0.000000 0.000000 0.000000 0.000000 0.000000 0.000000 0.000000 0.000000 -2.337306 0.000000 0.000000 2.337306 0.000000 0.000000 0.000000 8.578828 0.000000 0.000000 1.905768 0.000000 0.000000 -4.658254 0.000000 0.000000 0.000000 0.000000 0.000000 8.578828 0.000000 0.000000 1.905768 0.000000 0.000000 -4.658254 0.000000 0.000000 0.000000 0.000000
27.558424 97.952161 -26.666051 9.371002 -14.946265 0.347604 0.408894 9.112628 2.315973 0.135524 4.052050 1.017912 0.135524 4.052050 1.017912 0.094842 3.039273 0.762216 -4.396787 15.922827 -0.754188 -7.914063 -6.542848 0.196844 2.745116 -3.163915 4.582656 2.700744 -11.889118 79.478276 -4.280773 23.491020 -5.361779 0.984335 2.272374 2.779286 -0.172642 -5.239254 -14.764078 -1.950551 -8.008780 -77.230286 1.261490 24.782189 0.895520 2.450139 -1.944226 -0.139080 -2.119998 17.484897 0.360742 0.257926 -2.491213 0.449767 -4.178055 -4.252227 -0.662386 0.000000 0.000000 0.000000 6.961871 20.396158 4.043573 -0.440378 -1.759799 0.092594 10.155038 -0.450174 -1.611031 0.033838 -2.588191 -1.634458
27.600428 97.931338 -26.696084 9.399690 -14.763901 0.390181 0.395646 9.018897 2.295905 0.130530 4.010311 1.009432 0.130530 4.010311 1.009432 0.091225 3.007958 0.755907 -4.397417 15.942667 -0.762849 -7.911340 -6.506540 0.179810 2.748454 -3.117240 4.546681 2.716510 -11.900599 79.515826 -4.262506 23.494871 -5.348411 0.971868 2.283935 2.780599 -0.164380 -5.183307 -14.713228 -1.938217 -8.024728 -77.291470 1.252765 24.783896 0.890283 2.441585 -1.945797 -0.131157 -2.174262 17.245519 0.254121 0.259469 -2.426434 0.519025 -4.170378 -4.253481 -0.678287 -0.000000 0.000000 -0.000000 6.908497 20.202431 3.926105 -0.447165 -1.736387 0.137709 10.155535 -0.467940 -1.628578 0.035868 -2.662437 -1.621593
27.639449 97.914841 -26.722829 9.431203 -14.596473 0.425833 0.381200 8.935474 2.278245 0.124897 3.973150 1.002018 0.124897 3.973150 1.002018 0.087112 2.980077 0.750399 -4.398201 15.957305 -0.770098 -7.909616 -6.479791 0.165761 2.746984 -3.074097 4.514463 2.730846 -11.917854 79.550272 -4.244103 23.499249 -5.337326 0.962760 2.291390 2.775148 -0.159189 -5.132077 -14.667480 -1.928116 -8.041061 -77.346007 1.244446 24.781614 0.886661 2.433474 -1.947768 -0.124379 -2.217094 17.029310 0.161358 0.256751 -2.368985 0.580309 -4.169534 -4.252576 -0.689336 0.000000 -0.000000 0.000000 6.864634 20.025103 3.822119 -0.462442 -1.719966 0.178092 10.155566 -0.482027 -1.643017 0.037244 -2.715499 -1.607932
27.674201 97.905137 -26.745057 9.468062 -14.449984 0.450745 0.364826 8.867307 2.264421 0.118252 3.942763 0.996311 0.118252 3.942763 0.996311 0.082218 2.957275 0.746174 -4.399523 15.962566 -0.774467 -7.910292 -6.470237 0.157807 2.736241 -3.035157 4.488099 2.739987 -11.945875 79.579878 -4.222262 23.508645 -5.328155 0.959899 2.292419 2.756484 -0.159454 -5.088065 -14.628837 -1.920468 -8.058148 -77.391837 1.235459 24.772851 0.885489 2.426375 -1.948553 -0.120237 -2.240875 16.847199 0.088880 0.246415 -2.323542 0.630922 -4.181049 -4.247421 -0.692768 0.000000 0.000000 0.000000 6.836710 19.871221 3.738056 -0.494566 -1.716005 0.212035 10.155558 -0.489661 -1.652895 0.037587 -2.734111 -1.592349
27.705971 97.899757 -26.763996 9.507649 -14.318423 0.468757 0.347216 8.809448 2.253007 0.110958 3.916955 0.991676 0.110958 3.916955 0.991676 0.076822 2.937905 0.742755 -4.400999 15.962623 -0.777428 -7.911960 -6.470246 0.152830 2.720689 -2.999760 4.465474 2.747683 -11.979641 79.606394 -4.200287 23.518568 -5.321254 0.960400 2.289355 2.731045 -0.162787 -5.048757 -14.595317 -1.915065 -8.075650 -77.431013 1.226874 24.760098 0.885929 2.419722 -1.949740 -0.117239 -2.253522 16.688348 0.029892 0.231778 -2.285439 0.673575 -4.199395 -4.240106 -0.691343 0.000000 -0.000000 0.000000 6.818038 19.733832 3.667193 -0.535208 -1.719015 0.241245 10.155079 -0.493615 -1.659665 0.037310 -2.731537 -1.575974
27.735631 97.895623 -26.780043 9.544953 -14.198680 0.484354 0.329232 8.757367 2.242115 0.103456 3.893714 0.987265 0.103456 3.893714 0.987265 0.071264 2.920462 0.739504 -4.401634 15.964791 -0.781981 -7.911406 -6.466469 0.144467 2.708933 -2.969454 4.444014 2.763776 -12.009882 79.631935 -4.187971 23.516077 -5.320003 0.958961 2.285063 2.711384 -0.165127 -5.011333 -14.566063 -1.913499 -8.092944 -77.463034 1.222306 24.746835 0.887086 2.412259 -1.956483 -0.112061 -2.267346 16.543354 -0.021949 0.218505 -2.248005 0.708425 -4.214825 -4.234737 -0.688503 -0.000000 0.000000 0.000000 6.798015 19.608409 3.602967 -0.567844 -1.719577 0.266115 10.152366 -0.498533 -1.664579 0.036978 -2.726388 -1.561401
27.763034 97.891989 -26.792940 9.580087 -14.091581 0.498678 0.309698 8.710230 2.230608 0.095251 3.872663 0.982600 0.095251 3.872663 0.982600 0.065176 2.904660 0.736065 -4.400310 15.973007 -0.789768 -7.905807 -6.451751 0.129030 2.704961 -2.946277 4.423093 2.796267 -12.032347 79.657771 -4.193540 23.490082 -5.328435 0.952668 2.279875 2.703672 -0.164703 -4.974300 -14.541864 -1.916672 -8.110033 -77.484852 1.224474 24.736765 0.888524 2.402767 -1.972540 -0.102953 -2.287340 16.410652 -0.067234 0.208371 -2.207604 0.733482 -4.224577 -4.234306 -0.685296 0.000000 -0.000000 -0.000000 6.772284 19.494580 3.544267 -0.586168 -1.713354 0.286006 10.145391 -0.506380 -1.667733 0.036755 -2.723812 -1.549823
27.788329 97.889600 -26.802944 9.612925 -13.996295 0.510556 0.289782 8.668871 2.219627 0.086836 3.854180 0.978163 0.086836 3.854180 0.978163 0.058925 2.890783 0.732797 -4.398147 15.983332 -0.799150 -7.897990 -6.433251 0.110206 2.704794 -2.928188 4.403341 2.837165 -12.051318 79.682607 -4.208756 23.451668 -5.342501 0.944436 2.273451 2.701741 -0.163296 -4.939149 -14.521936 -1.923679 -8.126927 -77.499501 1.230660 24.726184 0.890678 2.392459 -1.994156 -0.091667 -2.308536 16.291783 -0.105320 0.199584 -2.167869 0.750732 -4.231413 -4.235820 -0.680675 0.000000 -0.000000 0.000000 6.745166 19.392691 3.492245 -0.596475 -1.704709 0.301561 10.136180 -0.515189 -1.669031 0.036480 -2.718663 -1.540046
27.812829 97.887617 -26.811227 9.638127 -13.907222 0.520974 0.273873 8.631261 2.210696 0.080137 3.837384 0.974550 0.080137 3.837384 0.974550 0.053953 2.878174 0.730136 -4.397505 15.991267 -0.808200 -7.893216 -6.419098 0.092688 2.705085 -2.910612 4.384069 2.872325 -12.070315 79.704702 -4.218733 23.421163 -5.353493 0.937705 2.267652 2.699636 -0.162169 -4.907546 -14.503062 -1.933401 -8.143009 -77.515610 1.236321 24.707463 0.893958 2.383725 -2.015224 -0.080143 -2.328237 16.181980 -0.140583 0.192464 -2.133024 0.766286 -4.233878 -4.234406 -0.674944 0.000000 0.000000 0.000000 6.719142 19.299255 3.443829 -0.601139 -1.697291 0.315097 10.129059 -0.523708 -1.669438 0.036224 -2.714105 -1.531079
27.837124 97.885874 -26.818108 9.653293 -13.822176 0.529971 0.263996 8.596695 2.204655 0.076041 3.821971 0.972100 0.076041 3.821971 0.972100 0.050922 2.866608 0.728329 -4.400149 15.994673 -0.816331 -7.895059 -6.413153 0.078326 2.704551 -2.891539 4.364953 2.894240 -12.091144 79.723346 -4.216882 23.407491 -5.357951 0.934369 2.262554 2.694641 -0.162334 -4.880707 -14.483927 -1.946076 -8.157127 -77.537897 1.241483 24.673153 0.900756 2.378052 -2.035815 -0.068192 -2.345960 16.079153 -0.174366 0.185902 -2.104111 0.782135 -4.229514 -4.228352 -0.668131 -0.000000 -0.000000 -0.000000 6.694269 19.213245 3.397844 -0.598995 -1.692952 0.327350 10.125094 -0.530885 -1.669254 0.036016 -2.711748 -1.522492
27.860625 97.884535 -26.823267 9.660826 -13.743337 0.537464 0.258121 8.565881 2.200646 0.073662 3.808247 0.970471 0.073662 3.808247 0.970471 0.049171 2.856310 0.727125 -4.404315 15.995689 -0.824127 -7.899943 -6.411556 0.065274 2.704471 -2.872976 4.346320 2.910418 -12.111977 79.739264 -4.209804 23.401731 -5.359355 0.932535 2.258080 2.689471 -0.162786 -4.857416 -14.465842 -1.961470 -8.170442 -77.561638 1.246105 24.630701 0.908666 2.373949 -2.055859 -0.056003 -2.362212 15.985382 -0.205305 0.180995 -2.080086 0.796281 -4.220776 -4.219371 -0.660213 0.000000 -0.000000 0.000000 6.670458 19.135676 3.355483 -0.591211 -1.689844 0.337585 10.123219 -0.537772 -1.668179 0.035826 -2.709982 -1.514714
27.882883 97.883254 -26.826917 9.662589 -13.671666 0.544253 0.254553 8.538910 2.197643 0.072267 3.796241 0.969238 0.072267 3.796241 0.969238 0.048152 2.847304 0.726213 -4.407070 15.996238 -0.831417 -7.902404 -6.410855 0.052682 2.705334 -2.856375 4.328453 2.929239 -12.130878 79.752861 -4.202418 23.397441 -5.359437 0.929953 2.255855 2.686325 -0.161765 -4.835695 -14.449526 -1.977755 -8.185800 -77.581297 1.245568 24.594832 0.910919 2.369345 -2.069040 -0.046074 -2.375775 15.902154 -0.233720 0.181381 -2.062044 0.808862 -4.213571 -4.207723 -0.651412 0.000000 0.000000 0.000000 6.649983 19.066136 3.317212 -0.583653 -1.686060 0.345905 10.124558 -0.546283 -1.666272 0.035635 -2.707156 -1.508041
27.903753 97.881886 -26.828877 9.658375 -13.608183 0.550693 0.253213 8.516301 2.195353 0.071825 3.786185 0.968276 0.071825 3.786185 0.968276 0.047843 2.839761 0.725497 -4.407049 15.996347 -0.837866 -7.900016 -6.411036 0.040675 2.707853 -2.841667 4.310793 2.955998 -12.146971 79.763559 -4.194843 23.393095 -5.357170 0.925559 2.257635 2.687037 -0.157727 -4.814648 -14.435895 -1.994106 -8.205078 -77.593160 1.235298 24.571498 0.901806 2.363155 -2.069687 -0.039926 -2.381962 15.832557 -0.259206 0.186567 -2.054012 0.820775 -4.211212 -4.191563 -0.641713 -0.000000 -0.000000 0.000000 6.635640 19.005412 3.284061 -0.579627 -1.681046 0.351848 10.129586 -0.557441 -1.663234 0.035429 -2.702237 -1.502721
27.923380 97.880575 -26.829329 9.648393 -13.551864 0.556410 0.254179 8.497534 2.194063 0.072367 3.777849 0.967709 0.072367 3.777849 0.967709 0.048266 2.833509 0.725070 -4.405617 15.995989 -0.843809 -7.895205 -6.412111 0.029127 2.711318 -2.828920 4.293899 2.985406 -12.161134 79.771930 -4.186960 23.390218 -5.353581 0.920420 2.261663 2.689774 -0.152220 -4.795173 -14.424033 -2.011340 -8.226393 -77.600941 1.219889 24.554747 0.887065 2.356477 -2.063466 -0.036033 -2.385482 15.773503 -0.282193 0.197034 -2.051972 0.831128 -4.210385 -4.172733 -0.631130 0.000000 -0.000000 0.000000 6.624607 18.952722 3.254974 -0.575829 -1.675353 0.355874 10.137828 -0.570224 -1.659365 0.035222 -2.696257 -1.498507
27.941748 97.879406 -26.829024 9.635135 -13.500605 0.561122 0.255989 8.481148 2.193612 0.073257 3.770574 0.967495 0.073257 3.770574 0.967495 0.048946 2.828055 0.724907 -4.403951 15.997004 -0.850075 -7.889791 -6.410668 0.016816 2.714081 -2.819794 4.279741 3.009962 -12.174060 79.780113 -4.183324 23.386946 -5.353484 0.915487 2.264296 2.691229 -0.148122 -4.777980 -14.411915 -2.030081 -8.246956 -77.610242 1.208476 24.541456 0.877103 2.350527 -2.061060 -0.032319 -2.399193 15.717210 -0.304230 0.217877 -2.044963 0.837385 -4.207058 -4.157018 -0.619937 0.000000 0.000000 0.000000 6.610735 18.905300 3.227290 -0.568213 -1.668722 0.359474 10.148988 -0.583470 -1.655619 0.035036 -2.690661 -1.494954
27.958854 97.878438 -26.827997 9.616790 -13.455412 0.564479 0.259147 8.467151 2.194171 0.074714 3.764368 0.967702 0.074714 3.764368 0.967702 0.050048 2.823403 0.725055 -4.402664 16.001148 -0.857569 -7.884525 -6.403476 0.002179 2.715994 -2.816223 4.269865 3.025615 -12.185665 79.788619 -4.187839 23.383119 -5.360014 0.910620 2.264451 2.690919 -0.146704 -4.763313 -14.398816 -2.049899 -8.265429 -77.622697 1.202671 24.510336 0.873812 2.351173 -2.063640 -0.031422 -2.432682 15.661193 -0.326593 0.257058 -2.026326 0.837715 -4.198614 -4.147615 -0.607865 0.000000 -0.000000 0.000000 6.590759 18.864506 3.200095 -0.553995 -1.661221 0.363017 10.165451 -0.596834 -1.652334 0.034885 -2.686305 -1.491916
